<svg xmlns="http://www.w3.org/2000/svg" xmlns:xlink="http://www.w3.org/1999/xlink" version="1.1" width="19.532715pt" height="19.931298pt" viewBox="0 0 19.532715 19.931298">
<path transform="matrix(1,0,0,-1,9.965698,17.517407)" d="M9.567023 7.330305C9.567023 8.149694 9.500533 8.747634 9.356641 9.36771H0V5.669389H5.492136C5.38145 4.750305 4.783512 3.366183 3.454733 2.436106L3.436107 2.31229 6.394503 .020457 6.599466 0C8.481833 1.738473 9.567023 4.296336 9.567023 7.330305Z" fill="#4285f4"/>
<path transform="matrix(1,0,0,-1,1.062988,19.931298)" d="M8.902672-.000001C11.593359-.000001 13.852214 .885877 15.502137 2.413892L12.357405 4.849998C11.515878 4.263128 10.386412 3.853434 8.902672 3.853434 6.267328 3.853434 4.030611 5.591831 3.233282 7.994656L3.116412 7.984732 .040229 5.604045 0 5.492213C1.638779 2.236793 5.004961-.000001 8.902672-.000001Z" fill="#34a853"/>
<path transform="matrix(1,0,0,-1,0,14.439083)" d="M4.296259 2.502441C4.085878 3.122518 3.964122 3.786945 3.964122 4.473433 3.964122 5.159998 4.085878 5.824349 4.285191 6.444426L4.279618 6.576487 1.164886 8.995419 1.062977 8.946945C.387557 7.596029 0 6.079006 0 4.473433 0 2.867861 .387557 1.350915 1.062977-.000001L4.296259 2.502441Z" fill="#fbbc05"/>
<path transform="matrix(1,0,0,-1,1.062988,7.9946558)" d="M8.902673 4.141297C10.773971 4.141297 12.036261 3.332976 12.756032 2.65748L15.568551 5.403587C13.841223 7.00916 11.59336 7.994656 8.902673 7.994656 5.004962 7.994656 1.638779 5.757938 0 2.502518L3.222214-.000001C4.030611 2.402823 6.267329 4.141297 8.902673 4.141297Z" fill="#eb4335"/>
</svg>
